<svg width="48" height="48" viewBox="0 0 48 48" fill="none" xmlns="http://www.w3.org/2000/svg">
<g clip-path="url(#clip0_2420_4758)">
<rect width="48" height="48" rx="24" fill="#393E46"/>
<rect width="48" height="48" rx="24" fill="#393E46"/>
<rect width="48" height="48" rx="24" fill="#393E46"/>
<g clip-path="url(#clip1_2420_4758)">
<path d="M16.7383 20.949C16.7383 19.8882 17.1597 18.8708 17.9099 18.1206C18.66 17.3705 19.6774 16.949 20.7383 16.949L22.7383 20.949L21.1983 23.2578C21.8092 24.7175 22.9699 25.8782 24.4295 26.489L26.7383 24.949L30.7383 26.949C30.7383 28.0099 30.3169 29.0273 29.5667 29.7775C28.8166 30.5276 27.7991 30.949 26.7383 30.949C24.0861 30.949 21.5426 29.8955 19.6672 28.0201C17.7918 26.1447 16.7383 23.6012 16.7383 20.949Z" stroke="#1EF600" stroke-width="2" stroke-linecap="round" stroke-linejoin="round"/>
<path d="M17.7303 34.3378C20.251 35.7966 23.2162 36.289 26.0731 35.7231C28.93 35.1572 31.4835 33.5716 33.2577 31.262C35.0319 28.9523 35.9055 26.0763 35.7158 23.1701C35.5261 20.2639 34.286 17.5259 32.2266 15.4665C30.1672 13.4071 27.4292 12.167 24.523 11.9773C21.6168 11.7876 18.7408 12.6612 16.4312 14.4354C14.1215 16.2096 12.536 18.7632 11.97 21.62C11.4041 24.4769 11.8965 27.4421 13.3553 29.9628L11.7916 34.6315C11.7328 34.8077 11.7243 34.9968 11.767 35.1776C11.8096 35.3583 11.9018 35.5236 12.0331 35.655C12.1645 35.7863 12.3298 35.8785 12.5106 35.9211C12.6913 35.9638 12.8804 35.9553 13.0566 35.8965L17.7303 34.3378Z" stroke="#1EF600" stroke-width="2" stroke-linecap="round" stroke-linejoin="round"/>
</g>
</g>
<defs>
<clipPath id="clip0_2420_4758">
<rect width="48" height="48" rx="24" fill="white"/>
</clipPath>
<clipPath id="clip1_2420_4758">
<rect width="32" height="32" fill="white" transform="translate(7.73828 7.94904)"/>
</clipPath>
</defs>
</svg>
